<?xml version="1.0" encoding="UTF-8"?>
<svg id="Layer_2" data-name="Layer 2" xmlns="http://www.w3.org/2000/svg" viewBox="0 0 105.72 105.72">
  <defs>
    <style>
      .cls-1 {
        fill: #fff;
      }

      .cls-1, .cls-2 {
        stroke: #373f47;
        stroke-miterlimit: 10;
      }

      .cls-2 {
        fill: #373f47;
      }
    </style>
  </defs>
  <g id="Clothing">
    <g>
      <rect class="cls-2" x=".5" y=".5" width="104.72" height="104.72" rx="17.81" ry="17.81"/>
      <path class="cls-1" d="m84.12,35.65c-1.59-1.22-15.79-10.89-15.79-10.89,0,0-5.64-2.23-7.48-.04-.87,1.27-.7.74-.74,1.57-.04.83-1.18,6.17-6.74,6.74h0l-.78.03c-5.55-.57-6.69-5.9-6.74-6.74-.04-.83.13-.31-.74-1.57-1.84-2.19-7.48.04-7.48.04,0,0-14.2,9.67-15.79,10.89-2.45,1.88-1.09,5.2-1.01,5.34.09.13,4.81,7.26,6.52,9.32s4.72.66,4.99.44c.26-.22,2.01-1.62,2.01-1.62l-.04-1.27h.06s0,29.29,0,29.29c0,1.88,1.53,3.41,3.41,3.41h30.43c1.97,0,3.56-1.59,3.56-3.56v-27.76c.43.34,1.63,1.31,1.85,1.49.26.22,3.28,1.62,4.99-.44s6.43-9.18,6.52-9.32c.09-.13,1.44-3.46-1.01-5.34Z"/>
    </g>
  </g>
</svg>