<?xml version="1.0" encoding="UTF-8"?>
<svg id="Layer_2" data-name="Layer 2" xmlns="http://www.w3.org/2000/svg" viewBox="0 0 105.72 105.72">
  <defs>
    <style>
      .cls-1 {
        fill: #fff;
      }

      .cls-1, .cls-2 {
        stroke: #373f47;
        stroke-miterlimit: 10;
      }

      .cls-2 {
        fill: #c5d5ea;
      }
    </style>
  </defs>
  <g id="Food">
    <g>
      <rect class="cls-2" x=".5" y=".5" width="104.72" height="104.72" rx="17.81" ry="17.81"/>
      <path class="cls-1" d="m81.59,55.83c-1.49-.85,2.55-3.02,3.54-4.17.99-1.15,1.72-3.44-.73-4.74-2.45-1.3-5.56-.72-5.67,2.4-.1,4.01-.75,4.16-1.26,4.11-1.18-.11-1.35-1.46-1.77-3.59s-3-3.86-5.33-2.51c-3.41,3.12.69,6.08,3.04,7.15,2.88,1.31,2.08,2.92,1.09,3.28-.07.03-.14.04-.21.06-.07-.04-.11-.05-.11-.05-1.37-.42-8.53-5.37-13.27,2.95-.07.12-.14.25-.21.37l7.39,5.26c.45.32.55.94.23,1.39-.19.27-.5.42-.82.42-.2,0-.4-.06-.58-.19l-7.18-5.11c-.9,1.73-1.76,3.55-2.55,5.42l6.99,4.97c.45.32.55.94.23,1.39-.19.27-.5.42-.82.42-.2,0-.4-.06-.58-.19l-6.6-4.7c-2.47,6.36-3.98,12.99-3.2,17.69.53,3.16,2.63,4.11,9.37-.11,6.51-4.07,25.72-16.36,18.95-23.37-1.34-1.39-2.45-2.48-3.36-3.35-.77-1.34-.02-3.6,2.82-1.67,3.07,2.08,5.84,4.61,7.65.47,2-4.57-6.48-3.88-7.08-4.01Z"/>
      <path class="cls-1" d="m46.79,24.66c-5.98-2.46-12.08,2.01-12.08,2.01-.23,0-.65-.04-.78-.07-.89-.22-.09-7.03.18-7.86.7-2.1,1.81-1.84,2.05-2.71.24-.87-.84-1.6-2.76.32-1.52,1.52-1.96,3.72-2.1,7.1-1.59-2.05-3.96-4.22-7.12-4.54-3.74-.37-8.11,1.31-4.01,6.01.73.87,3.86,3.04,4.07,4.3-1.66.72-3.11,1.55-4.04,2.47-2.77,2.7-4.28,8.17,1.98,15.72,6.26,7.55,11.17,9.64,15.43,7.04,1.97-2.05,1.46-2.62,3.35-2.46.79.07,6.32,2.85,9.39-2.96s2.4-21.91-3.58-24.37Zm-19.45,9.49c-.99.75-3.71,4.59-1.2,8.43.3.46.17,1.08-.29,1.38-.17.11-.36.16-.55.16-.33,0-.65-.16-.84-.45-3.26-4.99.14-9.97,1.68-11.12.44-.33,1.07-.24,1.4.2.33.44.24,1.07-.2,1.4Z"/>
    </g>
  </g>
</svg>