<?xml version="1.0" encoding="UTF-8"?>
<svg id="Layer_2" data-name="Layer 2" xmlns="http://www.w3.org/2000/svg" viewBox="0 0 105.72 105.72">
  <defs>
    <style>
      .cls-1 {
        fill: #fff;
      }

      .cls-1, .cls-2 {
        stroke: #373f47;
        stroke-miterlimit: 10;
      }

      .cls-2 {
        fill: #c5d5ea;
      }
    </style>
  </defs>
  <g id="Medication">
    <g>
      <rect class="cls-2" x=".5" y=".5" width="104.72" height="104.72" rx="17.81" ry="17.81"/>
      <g>
        <path class="cls-1" d="m53.89,39.79l-8.25-8.25-14.37,14.21,8.32,8.32c3.93,3.93,10.36,3.93,14.29,0s3.93-10.36,0-14.29Z"/>
        <path class="cls-1" d="m42.82,28.72l-9.17-9.17c-3.93-3.93-10.36-3.93-14.29,0h0c-3.93,3.93-3.93,10.36,0,14.29l9.09,9.09,14.37-14.21Z"/>
      </g>
      <g>
        <path class="cls-1" d="m61.79,61.06l-8.83,8.83c-3.93,3.93-3.93,10.36,0,14.29s10.36,3.93,14.29,0l8.9-8.9-14.37-14.21Z"/>
        <path class="cls-1" d="m87.5,49.64c-3.93-3.93-10.36-3.93-14.29,0l-8.59,8.59,14.37,14.21,8.51-8.51c3.93-3.93,3.93-10.36,0-14.29Z"/>
      </g>
      <path class="cls-2" d="m33.65,23.78c-.27,0-.53-.11-.73-.31-3.67-3.9-5.85-3.24-7.44-2.76-.53.16-1.09-.14-1.25-.67-.16-.53.14-1.09.67-1.25,1.73-.52,4.96-1.49,9.48,3.31.38.4.36,1.04-.04,1.41-.19.18-.44.27-.69.27Z"/>
      <path class="cls-2" d="m73.66,53.82c-.25,0-.49-.09-.69-.27-.4-.38-.42-1.01-.04-1.41,4.52-4.8,7.74-3.83,9.48-3.31.53.16.83.72.67,1.25-.16.53-.72.83-1.25.67-1.59-.48-3.77-1.14-7.44,2.76-.2.21-.46.31-.73.31Z"/>
    </g>
  </g>
</svg>