<svg width="12" height="20" viewBox="0 0 12 20" fill="none" xmlns="http://www.w3.org/2000/svg">
<path d="M9.12494 19.1004L0.699942 10.7004C0.599942 10.6004 0.528942 10.4921 0.486942 10.3754C0.444942 10.2587 0.424276 10.1337 0.424942 10.0004C0.424942 9.86706 0.445942 9.74206 0.487942 9.62539C0.529942 9.50872 0.600609 9.40039 0.699942 9.30039L9.12494 0.875391C9.35828 0.642057 9.64994 0.525391 9.99994 0.525391C10.3499 0.525391 10.6499 0.650391 10.8999 0.900391C11.1499 1.15039 11.2749 1.44206 11.2749 1.77539C11.2749 2.10872 11.1499 2.40039 10.8999 2.65039L3.54994 10.0004L10.8999 17.3504C11.1333 17.5837 11.2499 17.8714 11.2499 18.2134C11.2499 18.5554 11.1249 18.8511 10.8749 19.1004C10.6249 19.3504 10.3333 19.4754 9.99994 19.4754C9.66661 19.4754 9.37494 19.3504 9.12494 19.1004Z" fill="#08151E"/>
</svg>
