<svg width="12" height="20" viewBox="0 0 12 20" fill="none" xmlns="http://www.w3.org/2000/svg">
<path d="M2.87506 0.899608L11.3001 9.29961C11.4001 9.39961 11.4711 9.50794 11.5131 9.62461C11.5551 9.74128 11.5757 9.86628 11.5751 9.99961C11.5751 10.1329 11.5541 10.2579 11.5121 10.3746C11.4701 10.4913 11.3994 10.5996 11.3001 10.6996L2.87506 19.1246C2.64172 19.3579 2.35006 19.4746 2.00006 19.4746C1.65006 19.4746 1.35006 19.3496 1.10006 19.0996C0.850058 18.8496 0.725058 18.5579 0.725058 18.2246C0.725058 17.8913 0.850058 17.5996 1.10006 17.3496L8.45006 9.99961L1.10006 2.64961C0.866726 2.41627 0.750059 2.12861 0.750059 1.78661C0.750059 1.44461 0.875059 1.14894 1.12506 0.899608C1.37506 0.649608 1.66673 0.524608 2.00006 0.524608C2.33339 0.524608 2.62506 0.649608 2.87506 0.899608Z" fill="#08151E"/>
</svg>
