<?xml version="1.0" encoding="UTF-8"?>
<svg xmlns="http://www.w3.org/2000/svg" viewBox="0 0 1000 1000">
  <defs>
    <style>
      .cls-1 {
        fill: #6c91c2;
      }

      .cls-1, .cls-2 {
        stroke: #0f0d04;
      }

      .cls-1, .cls-2, .cls-3, .cls-4, .cls-5, .cls-6, .cls-7, .cls-8, .cls-9 {
        stroke-miterlimit: 10;
      }

      .cls-1, .cls-2, .cls-3, .cls-7 {
        stroke-linecap: round;
      }

      .cls-1, .cls-2, .cls-7 {
        stroke-width: 8px;
      }

      .cls-2 {
        fill: #ff8c42;
      }

      .cls-3 {
        fill: #373f47;
      }

      .cls-3, .cls-4, .cls-5, .cls-6 {
        stroke-width: 9px;
      }

      .cls-3, .cls-4, .cls-5, .cls-6, .cls-7, .cls-8, .cls-9 {
        stroke: #000;
      }

      .cls-4 {
        fill: #4f4f4f;
      }

      .cls-5 {
        fill: #fefcec;
      }

      .cls-6 {
        fill: #68aa3d;
      }

      .cls-7 {
        fill: none;
      }

      .cls-8 {
        fill: #fff;
      }

      .cls-8, .cls-9 {
        stroke-width: 7px;
      }

      .cls-9 {
        fill: #545454;
      }
    </style>
  </defs>
  <g id="Car">
    <g id="Wheels">
      <path class="cls-4" d="m555.89,858.47h-17.31c-15.65,0-28.45-11.38-28.45-25.13v-55.72c0-13.75,12.8-25.13,28.45-25.13h17.31c15.65,0,28.45,11.38,28.45,25.13v55.72c0,13.75-12.8,25.13-28.45,25.13Z"/>
      <path class="cls-4" d="m536.21,858.94h-25.13c-15.65,0-28.45-10.2-28.45-23v-60.94c0-12.57,12.8-23,28.45-23h25.13c15.65,0,28.45,10.2,28.45,23v60.94c0,12.8-12.8,23-28.45,23Z"/>
      <path class="cls-4" d="m848.48,833.34v-55.72c0-13.75,12.8-25.13,28.45-25.13h17.31c15.65,0,28.45,11.38,28.45,25.13v55.72c0,13.75-12.8,25.13-28.45,25.13h-17.31c-15.65,0-28.45-11.38-28.45-25.13Z"/>
      <path class="cls-4" d="m868.16,836.18v-60.94c0-12.57,12.8-23,28.45-23h25.13c15.65,0,28.45,10.2,28.45,23v60.94c0,12.57-12.8,23-28.45,23h-25.13c-15.65-.24-28.45-10.43-28.45-23Z"/>
    </g>
    <path class="cls-6" d="m974.86,475.54c0-81.56-69-155.07-160.52-152.93-63.31,1.42-135.39.47-197.51,2.37-87.25,2.61-150.32,72.08-150.32,150.56v286.19c0,15.65,12.8,28.45,28.45,28.45h451.21c15.65,0,28.45-12.8,28.45-28.45v-93.66c.24-.71.24-1.42.24-2.37v-190.16h0Z"/>
    <path id="Window" class="cls-5" d="m899.93,586.04h-358.98c-12.57,0-22.52-8.06-22.52-17.55v-139.89c0-14.46,15.65-26.08,34.85-26.08h334.79c19.21,0,34.85,11.62,34.85,26.08v139.89c-.24,9.48-10.43,17.55-23,17.55Z"/>
    <g id="Blue_guy" data-name="Blue guy">
      <path class="cls-1" d="m890.73,586.85c11.62-15.41,19.16-35.67,19.16-56.3,0-50.27-40.78-91.05-91.05-91.05s-91.05,40.78-91.05,91.05c0,21.1,7.11,40.54,19.21,55.96,55.53,0,88.67.34,143.73.34Z"/>
      <circle cx="764.78" cy="532.69" r="7.35"/>
      <circle cx="872.66" cy="532.69" r="7.35"/>
      <path class="cls-7" d="m794.66,553.79c12.09,11.14,36.99,12.8,54.3-1.66"/>
    </g>
    <g id="Orange_guy" data-name="Orange guy">
      <path class="cls-2" d="m694.58,586.67c11.62-15.41,18.28-35.73,18.28-56.36,0-50.27-40.78-91.05-91.05-91.05s-91.05,40.78-91.05,91.05c0,21.1,7.11,40.54,19.21,55.96,49.26,0,91.13.4,144.61.4Z"/>
      <circle cx="567.75" cy="532.45" r="7.35"/>
      <circle cx="675.63" cy="532.45" r="7.35"/>
      <path class="cls-7" d="m597.62,553.55c12.09,11.14,36.99,12.8,54.3-1.66"/>
    </g>
    <path id="Left_light" data-name="Left light" class="cls-8" d="m902.78,673.53h-59.51c-13.04,0-23.71-10.67-23.71-23.71v-12.8c0-13.04,10.67-23.71,23.71-23.71h59.51c13.04,0,23.71,10.67,23.71,23.71v12.8c-.24,13.04-10.91,23.71-23.71,23.71Z"/>
    <path id="Right_light" data-name="Right light" class="cls-8" d="m600.71,673.53h-59.51c-13.04,0-23.71-10.67-23.71-23.71v-12.8c0-13.04,10.67-23.71,23.71-23.71h59.51c13.04,0,23.71,10.67,23.71,23.71v12.8c0,13.04-10.67,23.71-23.71,23.71Z"/>
    <path class="cls-9" d="m669.47,717.87l107.41-.71s4.03,41.02-50.03,41.02c-65.44,0-57.38-40.31-57.38-40.31Z"/>
  </g>
  <g id="Small_fume" data-name="Small fume">
    <path class="cls-3" d="m345.34,547.15c-8.54-20.87,16.36-37.46,32.01-13.75,17.78-11.14,42.2,17.31,13.75,31.06,9.01,17.78-19.68,39.12-36.04,13.28-27.5,16.12-34.62-28.45-9.72-30.59Z"/>
  </g>
  <g id="Med_fume" data-name="Med fume">
    <path class="cls-3" d="m209.01,432.15c-19.21-30.35,4.03-53.11,33.43-29.88,3.08-36.04,65.44-15.65,36.04,20.15,54.3-1.42,15.41,59.28-9.01,38.89-2.13,27.27-39.12,38.17-47.18,6.16-50.74,0-13.28-35.33-13.28-35.33Z"/>
  </g>
  <g id="Large_fume" data-name="Large fume">
    <path class="cls-3" d="m59.63,233.7c-3.56-32.48,58.56-64.73,68.05-5.22,0,0,61.17-11.38,28.93,39.36,46.24,24.42-5.22,78.48-38.41,54.06-32.25,33.91-76.11.95-57.62-29.64-65.68-6.16-30.59-58.56-.95-58.56Z"/>
  </g>
</svg>