<svg width="24" height="24" viewBox="0 0 24 24" fill="none" xmlns="http://www.w3.org/2000/svg">
<path d="M14 15H21M3 15H5M5 15C5 15.663 5.26339 16.2989 5.73223 16.7678C6.20107 17.2366 6.83696 17.5 7.5 17.5C8.16304 17.5 8.79893 17.2366 9.26777 16.7678C9.73661 16.2989 10 15.663 10 15C10 14.337 9.73661 13.7011 9.26777 13.2322C8.79893 12.7634 8.16304 12.5 7.5 12.5C6.83696 12.5 6.20107 12.7634 5.73223 13.2322C5.26339 13.7011 5 14.337 5 15ZM20 9H21M3 9H10M16.5 11.5C15.837 11.5 15.2011 11.2366 14.7322 10.7678C14.2634 10.2989 14 9.66304 14 9C14 8.33696 14.2634 7.70107 14.7322 7.23223C15.2011 6.76339 15.837 6.5 16.5 6.5C17.163 6.5 17.7989 6.76339 18.2678 7.23223C18.7366 7.70107 19 8.33696 19 9C19 9.66304 18.7366 10.2989 18.2678 10.7678C17.7989 11.2366 17.163 11.5 16.5 11.5Z" stroke="#08151E" stroke-width="1.5" stroke-linecap="round" stroke-linejoin="round"/>
</svg>
