<svg width="14" height="14" viewBox="0 0 14 14" fill="none" xmlns="http://www.w3.org/2000/svg">
<path d="M13.808 12.88L9.395 8.467C10.087 7.577 10.5 6.461 10.5 5.25C10.5 2.355 8.145 0 5.25 0C2.355 0 0 2.355 0 5.25C0 8.145 2.355 10.5 5.25 10.5C6.461 10.5 7.577 10.086 8.467 9.395L12.88 13.808C13.008 13.936 13.176 14 13.344 14C13.512 14 13.68 13.936 13.808 13.808C14.064 13.551 14.064 13.136 13.808 12.88ZM5.25 9.188C3.079 9.188 1.312 7.422 1.312 5.25C1.312 3.078 3.079 1.312 5.25 1.312C7.421 1.312 9.188 3.078 9.188 5.25C9.188 7.422 7.421 9.188 5.25 9.188Z" fill="#010101"/>
</svg>
